<svg width="24" height="24" viewBox="0 0 24 24" fill="none" xmlns="http://www.w3.org/2000/svg">
<path d="M12 22C17.5228 22 22 17.5228 22 12C22 6.47715 17.5228 2 12 2C6.47715 2 2 6.47715 2 12C2 17.5228 6.47715 22 12 22Z" stroke="black" stroke-width="1.5" stroke-linecap="round" stroke-linejoin="round"/>
<path d="M8 15C8.46574 15.621 9.06966 16.125 9.76393 16.4721C10.4582 16.8193 11.2238 17 12 17C12.7762 17 13.5418 16.8193 14.2361 16.4721C14.9303 16.125 15.5343 15.621 16 15M8.009 9H8M16 9H15.991" stroke="black" stroke-width="1.5" stroke-linecap="round" stroke-linejoin="round"/>
</svg>
