<svg width="22" height="24" viewBox="0 0 22 24" fill="none" xmlns="http://www.w3.org/2000/svg">
<path d="M1.42674 12.6745L10.9405 3.1608C11.8867 2.21455 13.1701 1.68295 14.5083 1.68295C15.8466 1.68295 17.13 2.21455 18.0762 3.1608C19.0225 4.10706 19.5541 5.39046 19.5541 6.72867C19.5541 8.06688 19.0225 9.35028 18.0762 10.2965L6.77811 21.593C6.30234 22.0525 5.66511 22.3067 5.00368 22.301C4.34225 22.2952 3.70954 22.0299 3.24182 21.5622C2.7741 21.0945 2.50879 20.4618 2.50305 19.8004C2.4973 19.1389 2.75157 18.5017 3.21109 18.0259L13.3185 7.91852C13.4764 7.76085 13.5652 7.54691 13.5653 7.32377C13.5655 7.10063 13.477 6.88656 13.3193 6.72867C13.1617 6.57077 12.9477 6.48198 12.7246 6.48182C12.5014 6.48167 12.2874 6.57016 12.1295 6.72783L2.02208 16.8352C1.23919 17.6248 0.800935 18.6923 0.803212 19.8042C0.805488 20.9161 1.24811 21.9818 2.03423 22.7681C2.82034 23.5545 3.88593 23.9974 4.99782 24C6.10971 24.0026 7.17735 23.5646 7.96712 22.782L19.2652 11.4855C20.527 10.2239 21.236 8.51276 21.2362 6.72842C21.2363 4.94409 20.5277 3.23278 19.2661 1.97096C18.0045 0.709132 16.2933 0.000157722 14.5089 2.63127e-08C12.7246 -0.00015767 11.0133 0.708514 9.75147 1.97011L0.236046 11.4855C0.0828721 11.6441 -0.0018841 11.8565 3.17876e-05 12.077C0.00194767 12.2975 0.0903822 12.5084 0.246289 12.6643C0.402195 12.8202 0.613099 12.9086 0.833576 12.9106C1.05405 12.9125 1.26814 12.8277 1.42674 12.6745Z" fill="black"/>
</svg>
