<svg width="24" height="24" viewBox="0 0 24 24" fill="none" xmlns="http://www.w3.org/2000/svg">
<path fill-rule="evenodd" clip-rule="evenodd" d="M14.7365 2.76172H8.08449C6.02549 2.76172 4.25049 4.43072 4.25049 6.49072V17.3397C4.25049 19.5157 5.90849 21.1147 8.08449 21.1147H16.0725C18.1325 21.1147 19.8025 19.3997 19.8025 17.3397V8.03772L14.7365 2.76172Z" stroke="black" stroke-width="1.5" stroke-linecap="round" stroke-linejoin="round"/>
<path d="M14.4736 2.75V5.659C14.4736 7.079 15.6226 8.231 17.0426 8.234C18.3586 8.237 19.7056 8.238 19.7966 8.232" stroke="black" stroke-width="1.5" stroke-linecap="round" stroke-linejoin="round"/>
<path opacity="0.4" fill-rule="evenodd" clip-rule="evenodd" d="M12.5938 10.4644C12.5938 10.0501 12.258 9.71436 11.8438 9.71436C11.4296 9.71436 11.0938 10.0501 11.0938 10.4644V12.1641H9.39355C8.97934 12.1641 8.64355 12.4998 8.64355 12.9141C8.64355 13.3283 8.97934 13.6641 9.39355 13.6641H11.0938V15.3654C11.0938 15.7796 11.4296 16.1154 11.8438 16.1154C12.258 16.1154 12.5938 15.7796 12.5938 15.3654V13.6641H14.2946C14.7088 13.6641 15.0446 13.3283 15.0446 12.9141C15.0446 12.4998 14.7088 12.1641 14.2946 12.1641H12.5938V10.4644Z" fill="black"/>
</svg>
