<svg width="24" height="24" viewBox="0 0 24 24" fill="none" xmlns="http://www.w3.org/2000/svg">
<path opacity="0.4" fill-rule="evenodd" clip-rule="evenodd" d="M12.75 8.32715C12.75 7.91293 12.4143 7.57715 12 7.57715C11.5858 7.57715 11.25 7.91293 11.25 8.32715V11.2404H8.33337C7.91916 11.2404 7.58337 11.5762 7.58337 11.9904C7.58337 12.4046 7.91916 12.7404 8.33337 12.7404H11.25V15.6535C11.25 16.0677 11.5858 16.4035 12 16.4035C12.4143 16.4035 12.75 16.0677 12.75 15.6535V12.7404H15.6667C16.0809 12.7404 16.4167 12.4046 16.4167 11.9904C16.4167 11.5762 16.0809 11.2404 15.6667 11.2404H12.75V8.32715Z" fill="black"/>
<path fill-rule="evenodd" clip-rule="evenodd" d="M16.6857 2H7.31429C4.04762 2 2 4.31208 2 7.58516V16.4148C2 19.6879 4.0381 22 7.31429 22H16.6857C19.9619 22 22 19.6879 22 16.4148V7.58516C22 4.31208 19.9619 2 16.6857 2Z" stroke="black" stroke-width="1.5" stroke-linecap="round" stroke-linejoin="round"/>
</svg>
