<svg width="24" height="24" viewBox="0 0 24 24" fill="none" xmlns="http://www.w3.org/2000/svg">
<path opacity="0.4" fill-rule="evenodd" clip-rule="evenodd" d="M5.46484 10.9319C5.46484 10.5177 5.12906 10.1819 4.71484 10.1819C4.30063 10.1819 3.96484 10.5177 3.96484 10.9319C3.96484 15.1829 7.21676 18.6734 11.369 19.0517V21.1468C11.369 21.561 11.7048 21.8968 12.119 21.8968C12.5332 21.8968 12.869 21.561 12.869 21.1468V19.0516C17.0209 18.6729 20.2725 15.1826 20.2725 10.9319C20.2725 10.5177 19.9367 10.1819 19.5225 10.1819C19.1082 10.1819 18.7725 10.5177 18.7725 10.9319C18.7725 14.6072 15.794 17.5857 12.1187 17.5857C8.44334 17.5857 5.46484 14.6072 5.46484 10.9319Z" fill="black"/>
<path fill-rule="evenodd" clip-rule="evenodd" d="M12.2454 14.5843H11.993C9.97206 14.5843 8.33301 12.9462 8.33301 10.9243V6.37387C8.33301 4.35291 9.97206 2.71387 11.993 2.71387H12.2454C14.2663 2.71387 15.9054 4.35291 15.9054 6.37387V10.9243C15.9054 12.9462 14.2663 14.5843 12.2454 14.5843Z" stroke="black" stroke-width="1.5" stroke-linecap="round" stroke-linejoin="round"/>
</svg>
